<svg width="120" height="40" viewBox="0 0 120 40" fill="none" xmlns="http://www.w3.org/2000/svg">
  <path d="M20 8C13.3726 8 8 13.3726 8 20C8 26.6274 13.3726 32 20 32C26.6274 32 32 26.6274 32 20C32 13.3726 26.6274 8 20 8ZM20 28C15.5817 28 12 24.4183 12 20C12 15.5817 15.5817 12 20 12C24.4183 12 28 15.5817 28 20C28 24.4183 24.4183 28 20 28Z" fill="white"/>
  <path d="M20 16C18.8954 16 18 16.8954 18 18C18 19.1046 18.8954 20 20 20C21.1046 20 22 19.1046 22 18C22 16.8954 21.1046 16 20 16Z" fill="white"/>
  <text x="40" y="24" fill="white" font-family="Arial" font-size="16" font-weight="bold">ChatChill</text>
</svg> 